<mxfile host="app.diagrams.net" agent="Mozilla/5.0 (Windows NT 10.0; Win64; x64) AppleWebKit/537.36 (KHTML, like Gecko) Chrome/131.0.0.0 Safari/537.36 OPR/116.0.0.0" version="26.0.11">
  <diagram name="Página-1" id="If2Lp6D9Ydw0UGbauSkJ">
    <mxGraphModel dx="1632" dy="753" grid="1" gridSize="10" guides="1" tooltips="1" connect="1" arrows="1" fold="1" page="1" pageScale="1" pageWidth="827" pageHeight="1169" math="0" shadow="0">
      <root>
        <mxCell id="0" />
        <mxCell id="1" parent="0" />
        <mxCell id="kfA48wIo51u5LH3W96tf-1" value="Cliente" style="rounded=0;whiteSpace=wrap;html=1;" parent="1" vertex="1">
          <mxGeometry x="70" y="130" width="120" height="60" as="geometry" />
        </mxCell>
        <mxCell id="kfA48wIo51u5LH3W96tf-2" value="Encomenda" style="rounded=0;whiteSpace=wrap;html=1;" parent="1" vertex="1">
          <mxGeometry x="905" y="170" width="120" height="60" as="geometry" />
        </mxCell>
        <mxCell id="kfA48wIo51u5LH3W96tf-3" value="Receita" style="rounded=0;whiteSpace=wrap;html=1;" parent="1" vertex="1">
          <mxGeometry x="820" y="620" width="120" height="60" as="geometry" />
        </mxCell>
        <mxCell id="kfA48wIo51u5LH3W96tf-4" value="Nome" style="ellipse;whiteSpace=wrap;html=1;" parent="1" vertex="1">
          <mxGeometry x="260" y="50" width="120" height="60" as="geometry" />
        </mxCell>
        <mxCell id="kfA48wIo51u5LH3W96tf-5" value="Morada" style="ellipse;whiteSpace=wrap;html=1;" parent="1" vertex="1">
          <mxGeometry x="240" y="130" width="120" height="60" as="geometry" />
        </mxCell>
        <mxCell id="kfA48wIo51u5LH3W96tf-6" value="Telefone" style="ellipse;whiteSpace=wrap;html=1;" parent="1" vertex="1">
          <mxGeometry x="10" y="30" width="120" height="60" as="geometry" />
        </mxCell>
        <mxCell id="kfA48wIo51u5LH3W96tf-7" value="Contribuinte" style="ellipse;whiteSpace=wrap;html=1;" parent="1" vertex="1">
          <mxGeometry x="140" y="20" width="120" height="60" as="geometry" />
        </mxCell>
        <mxCell id="kfA48wIo51u5LH3W96tf-8" value="ClienteID" style="ellipse;whiteSpace=wrap;html=1;fillColor=#f8cecc;strokeColor=#b85450;" parent="1" vertex="1">
          <mxGeometry x="170" y="230" width="120" height="60" as="geometry" />
        </mxCell>
        <mxCell id="kfA48wIo51u5LH3W96tf-9" value="EncomendaID" style="ellipse;whiteSpace=wrap;html=1;fillColor=#f8cecc;strokeColor=#b85450;" parent="1" vertex="1">
          <mxGeometry x="740" y="230" width="120" height="60" as="geometry" />
        </mxCell>
        <mxCell id="563A25bPd7Za-6aqqXd2-4" value="" style="edgeStyle=orthogonalEdgeStyle;rounded=0;orthogonalLoop=1;jettySize=auto;html=1;entryX=0.5;entryY=1;entryDx=0;entryDy=0;" edge="1" parent="1" source="kfA48wIo51u5LH3W96tf-10" target="kfA48wIo51u5LH3W96tf-9">
          <mxGeometry relative="1" as="geometry">
            <mxPoint x="800" y="380" as="targetPoint" />
          </mxGeometry>
        </mxCell>
        <mxCell id="kfA48wIo51u5LH3W96tf-10" value="ReceitaID" style="ellipse;whiteSpace=wrap;html=1;fillColor=#f8cecc;strokeColor=#b85450;" parent="1" vertex="1">
          <mxGeometry x="740" y="490" width="120" height="60" as="geometry" />
        </mxCell>
        <mxCell id="kfA48wIo51u5LH3W96tf-11" value="" style="endArrow=none;html=1;rounded=0;exitX=0.5;exitY=1;exitDx=0;exitDy=0;entryX=0.142;entryY=-0.017;entryDx=0;entryDy=0;entryPerimeter=0;" parent="1" source="kfA48wIo51u5LH3W96tf-6" target="kfA48wIo51u5LH3W96tf-1" edge="1">
          <mxGeometry width="50" height="50" relative="1" as="geometry">
            <mxPoint x="105" y="130" as="sourcePoint" />
            <mxPoint x="155" y="80" as="targetPoint" />
          </mxGeometry>
        </mxCell>
        <mxCell id="kfA48wIo51u5LH3W96tf-12" value="" style="endArrow=none;html=1;rounded=0;exitX=0.5;exitY=1;exitDx=0;exitDy=0;entryX=0.375;entryY=0;entryDx=0;entryDy=0;entryPerimeter=0;" parent="1" source="kfA48wIo51u5LH3W96tf-7" target="kfA48wIo51u5LH3W96tf-1" edge="1">
          <mxGeometry width="50" height="50" relative="1" as="geometry">
            <mxPoint x="80" y="100" as="sourcePoint" />
            <mxPoint x="130" y="120" as="targetPoint" />
          </mxGeometry>
        </mxCell>
        <mxCell id="kfA48wIo51u5LH3W96tf-13" value="" style="endArrow=none;html=1;rounded=0;exitX=0.083;exitY=0.833;exitDx=0;exitDy=0;entryX=1;entryY=0;entryDx=0;entryDy=0;exitPerimeter=0;" parent="1" source="kfA48wIo51u5LH3W96tf-4" target="kfA48wIo51u5LH3W96tf-1" edge="1">
          <mxGeometry width="50" height="50" relative="1" as="geometry">
            <mxPoint x="210" y="90" as="sourcePoint" />
            <mxPoint x="125" y="140" as="targetPoint" />
          </mxGeometry>
        </mxCell>
        <mxCell id="kfA48wIo51u5LH3W96tf-14" value="" style="endArrow=none;html=1;rounded=0;exitX=0;exitY=0.5;exitDx=0;exitDy=0;entryX=1;entryY=0.5;entryDx=0;entryDy=0;" parent="1" source="kfA48wIo51u5LH3W96tf-5" target="kfA48wIo51u5LH3W96tf-1" edge="1">
          <mxGeometry width="50" height="50" relative="1" as="geometry">
            <mxPoint x="280" y="110" as="sourcePoint" />
            <mxPoint x="200" y="140" as="targetPoint" />
          </mxGeometry>
        </mxCell>
        <mxCell id="kfA48wIo51u5LH3W96tf-15" value="" style="endArrow=none;html=1;rounded=0;exitX=0.267;exitY=0.033;exitDx=0;exitDy=0;entryX=1;entryY=1;entryDx=0;entryDy=0;exitPerimeter=0;" parent="1" source="kfA48wIo51u5LH3W96tf-8" target="kfA48wIo51u5LH3W96tf-1" edge="1">
          <mxGeometry width="50" height="50" relative="1" as="geometry">
            <mxPoint x="250" y="170" as="sourcePoint" />
            <mxPoint x="200" y="170" as="targetPoint" />
          </mxGeometry>
        </mxCell>
        <mxCell id="kfA48wIo51u5LH3W96tf-16" value="Data_Encomenda" style="ellipse;whiteSpace=wrap;html=1;" parent="1" vertex="1">
          <mxGeometry x="785" y="50" width="120" height="60" as="geometry" />
        </mxCell>
        <mxCell id="kfA48wIo51u5LH3W96tf-17" value="Local" style="ellipse;whiteSpace=wrap;html=1;" parent="1" vertex="1">
          <mxGeometry x="975" y="80" width="120" height="60" as="geometry" />
        </mxCell>
        <mxCell id="kfA48wIo51u5LH3W96tf-18" value="Designação" style="ellipse;whiteSpace=wrap;html=1;" parent="1" vertex="1">
          <mxGeometry x="710" y="700" width="120" height="60" as="geometry" />
        </mxCell>
        <mxCell id="kfA48wIo51u5LH3W96tf-19" value="Tempo_Prep" style="ellipse;whiteSpace=wrap;html=1;" parent="1" vertex="1">
          <mxGeometry x="640" y="615" width="120" height="60" as="geometry" />
        </mxCell>
        <mxCell id="kfA48wIo51u5LH3W96tf-20" value="Peso" style="ellipse;whiteSpace=wrap;html=1;" parent="1" vertex="1">
          <mxGeometry x="950" y="560" width="120" height="60" as="geometry" />
        </mxCell>
        <mxCell id="kfA48wIo51u5LH3W96tf-21" value="Calorias" style="ellipse;whiteSpace=wrap;html=1;" parent="1" vertex="1">
          <mxGeometry x="850" y="735" width="120" height="60" as="geometry" />
        </mxCell>
        <mxCell id="kfA48wIo51u5LH3W96tf-22" value="Custo" style="ellipse;whiteSpace=wrap;html=1;" parent="1" vertex="1">
          <mxGeometry x="990" y="660" width="120" height="60" as="geometry" />
        </mxCell>
        <mxCell id="kfA48wIo51u5LH3W96tf-23" value="" style="endArrow=none;html=1;rounded=0;exitX=0.5;exitY=1;exitDx=0;exitDy=0;entryX=0.25;entryY=0;entryDx=0;entryDy=0;" parent="1" source="kfA48wIo51u5LH3W96tf-16" edge="1">
          <mxGeometry width="50" height="50" relative="1" as="geometry">
            <mxPoint x="852" y="120" as="sourcePoint" />
            <mxPoint x="910" y="170" as="targetPoint" />
          </mxGeometry>
        </mxCell>
        <mxCell id="kfA48wIo51u5LH3W96tf-25" value="" style="endArrow=none;html=1;rounded=0;exitX=0;exitY=1;exitDx=0;exitDy=0;entryX=1;entryY=0;entryDx=0;entryDy=0;" parent="1" source="kfA48wIo51u5LH3W96tf-17" edge="1">
          <mxGeometry width="50" height="50" relative="1" as="geometry">
            <mxPoint x="855" y="120" as="sourcePoint" />
            <mxPoint x="1000" y="170" as="targetPoint" />
          </mxGeometry>
        </mxCell>
        <mxCell id="kfA48wIo51u5LH3W96tf-26" value="" style="endArrow=none;html=1;rounded=0;exitX=0.5;exitY=1;exitDx=0;exitDy=0;entryX=0;entryY=0;entryDx=0;entryDy=0;" parent="1" source="kfA48wIo51u5LH3W96tf-10" target="kfA48wIo51u5LH3W96tf-3" edge="1">
          <mxGeometry width="50" height="50" relative="1" as="geometry">
            <mxPoint x="1058" y="360" as="sourcePoint" />
            <mxPoint x="1080" y="310" as="targetPoint" />
          </mxGeometry>
        </mxCell>
        <mxCell id="kfA48wIo51u5LH3W96tf-27" value="" style="endArrow=none;html=1;rounded=0;exitX=1;exitY=0.5;exitDx=0;exitDy=0;entryX=0;entryY=0.5;entryDx=0;entryDy=0;" parent="1" source="kfA48wIo51u5LH3W96tf-19" target="kfA48wIo51u5LH3W96tf-3" edge="1">
          <mxGeometry width="50" height="50" relative="1" as="geometry">
            <mxPoint x="820" y="590" as="sourcePoint" />
            <mxPoint x="830" y="630" as="targetPoint" />
          </mxGeometry>
        </mxCell>
        <mxCell id="kfA48wIo51u5LH3W96tf-28" value="" style="endArrow=none;html=1;rounded=0;exitX=0.775;exitY=0.083;exitDx=0;exitDy=0;entryX=0;entryY=1;entryDx=0;entryDy=0;exitPerimeter=0;" parent="1" source="kfA48wIo51u5LH3W96tf-18" target="kfA48wIo51u5LH3W96tf-3" edge="1">
          <mxGeometry width="50" height="50" relative="1" as="geometry">
            <mxPoint x="770" y="655" as="sourcePoint" />
            <mxPoint x="830" y="660" as="targetPoint" />
          </mxGeometry>
        </mxCell>
        <mxCell id="kfA48wIo51u5LH3W96tf-29" value="" style="endArrow=none;html=1;rounded=0;exitX=0.5;exitY=0;exitDx=0;exitDy=0;entryX=0.5;entryY=1;entryDx=0;entryDy=0;" parent="1" source="kfA48wIo51u5LH3W96tf-21" target="kfA48wIo51u5LH3W96tf-3" edge="1">
          <mxGeometry width="50" height="50" relative="1" as="geometry">
            <mxPoint x="813" y="715" as="sourcePoint" />
            <mxPoint x="830" y="690" as="targetPoint" />
          </mxGeometry>
        </mxCell>
        <mxCell id="kfA48wIo51u5LH3W96tf-30" value="" style="endArrow=none;html=1;rounded=0;exitX=0;exitY=0.5;exitDx=0;exitDy=0;entryX=1;entryY=1;entryDx=0;entryDy=0;" parent="1" source="kfA48wIo51u5LH3W96tf-22" target="kfA48wIo51u5LH3W96tf-3" edge="1">
          <mxGeometry width="50" height="50" relative="1" as="geometry">
            <mxPoint x="920" y="745" as="sourcePoint" />
            <mxPoint x="890" y="690" as="targetPoint" />
          </mxGeometry>
        </mxCell>
        <mxCell id="kfA48wIo51u5LH3W96tf-31" value="" style="endArrow=none;html=1;rounded=0;exitX=0.05;exitY=0.733;exitDx=0;exitDy=0;entryX=1;entryY=0;entryDx=0;entryDy=0;exitPerimeter=0;" parent="1" source="kfA48wIo51u5LH3W96tf-20" target="kfA48wIo51u5LH3W96tf-3" edge="1">
          <mxGeometry width="50" height="50" relative="1" as="geometry">
            <mxPoint x="1000" y="700" as="sourcePoint" />
            <mxPoint x="950" y="690" as="targetPoint" />
          </mxGeometry>
        </mxCell>
        <mxCell id="kfA48wIo51u5LH3W96tf-34" value="1" style="text;html=1;align=center;verticalAlign=middle;whiteSpace=wrap;rounded=0;" parent="1" vertex="1">
          <mxGeometry x="280" y="230" width="60" height="30" as="geometry" />
        </mxCell>
        <mxCell id="kfA48wIo51u5LH3W96tf-36" value="" style="edgeStyle=orthogonalEdgeStyle;rounded=0;orthogonalLoop=1;jettySize=auto;html=1;entryX=0;entryY=0.5;entryDx=0;entryDy=0;" parent="1" source="kfA48wIo51u5LH3W96tf-8" target="kfA48wIo51u5LH3W96tf-9" edge="1">
          <mxGeometry relative="1" as="geometry">
            <mxPoint x="290" y="260" as="sourcePoint" />
            <mxPoint x="470" y="260" as="targetPoint" />
          </mxGeometry>
        </mxCell>
        <mxCell id="kfA48wIo51u5LH3W96tf-37" value="n" style="text;html=1;align=center;verticalAlign=middle;whiteSpace=wrap;rounded=0;" parent="1" vertex="1">
          <mxGeometry x="690" y="230" width="60" height="30" as="geometry" />
        </mxCell>
        <mxCell id="563A25bPd7Za-6aqqXd2-2" value="" style="endArrow=none;html=1;rounded=0;exitX=1;exitY=0.5;exitDx=0;exitDy=0;entryX=0;entryY=1;entryDx=0;entryDy=0;" edge="1" parent="1" source="kfA48wIo51u5LH3W96tf-9" target="kfA48wIo51u5LH3W96tf-2">
          <mxGeometry width="50" height="50" relative="1" as="geometry">
            <mxPoint x="860" y="250" as="sourcePoint" />
            <mxPoint x="925" y="310" as="targetPoint" />
          </mxGeometry>
        </mxCell>
        <mxCell id="563A25bPd7Za-6aqqXd2-5" value="n" style="text;html=1;align=center;verticalAlign=middle;whiteSpace=wrap;rounded=0;" vertex="1" parent="1">
          <mxGeometry x="780" y="460" width="60" height="30" as="geometry" />
        </mxCell>
        <mxCell id="563A25bPd7Za-6aqqXd2-6" value="m" style="text;html=1;align=center;verticalAlign=middle;whiteSpace=wrap;rounded=0;" vertex="1" parent="1">
          <mxGeometry x="780" y="290" width="60" height="30" as="geometry" />
        </mxCell>
        <mxCell id="563A25bPd7Za-6aqqXd2-20" value="" style="edgeStyle=orthogonalEdgeStyle;rounded=0;orthogonalLoop=1;jettySize=auto;html=1;entryX=0;entryY=0.5;entryDx=0;entryDy=0;" edge="1" parent="1" source="563A25bPd7Za-6aqqXd2-7" target="kfA48wIo51u5LH3W96tf-10">
          <mxGeometry relative="1" as="geometry">
            <mxPoint x="554" y="585" as="targetPoint" />
          </mxGeometry>
        </mxCell>
        <mxCell id="563A25bPd7Za-6aqqXd2-7" value="IgredienteID" style="ellipse;whiteSpace=wrap;html=1;fillColor=#f8cecc;strokeColor=#b85450;" vertex="1" parent="1">
          <mxGeometry x="294" y="490" width="120" height="60" as="geometry" />
        </mxCell>
        <mxCell id="563A25bPd7Za-6aqqXd2-8" value="Igrediente" style="rounded=0;whiteSpace=wrap;html=1;" vertex="1" parent="1">
          <mxGeometry x="160" y="570" width="120" height="60" as="geometry" />
        </mxCell>
        <mxCell id="563A25bPd7Za-6aqqXd2-9" value="Nome" style="ellipse;whiteSpace=wrap;html=1;" vertex="1" parent="1">
          <mxGeometry x="20" y="560" width="120" height="60" as="geometry" />
        </mxCell>
        <mxCell id="563A25bPd7Za-6aqqXd2-10" value="Unidade" style="ellipse;whiteSpace=wrap;html=1;" vertex="1" parent="1">
          <mxGeometry x="230" y="660" width="120" height="60" as="geometry" />
        </mxCell>
        <mxCell id="563A25bPd7Za-6aqqXd2-11" value="Stock" style="ellipse;whiteSpace=wrap;html=1;" vertex="1" parent="1">
          <mxGeometry x="40" y="660" width="120" height="60" as="geometry" />
        </mxCell>
        <mxCell id="563A25bPd7Za-6aqqXd2-12" value="" style="endArrow=none;html=1;rounded=0;exitX=1;exitY=0;exitDx=0;exitDy=0;entryX=0;entryY=1;entryDx=0;entryDy=0;" edge="1" parent="1" source="563A25bPd7Za-6aqqXd2-8" target="563A25bPd7Za-6aqqXd2-7">
          <mxGeometry width="50" height="50" relative="1" as="geometry">
            <mxPoint x="250" y="615" as="sourcePoint" />
            <mxPoint x="310" y="620" as="targetPoint" />
          </mxGeometry>
        </mxCell>
        <mxCell id="563A25bPd7Za-6aqqXd2-13" value="" style="endArrow=none;html=1;rounded=0;exitX=0.5;exitY=0;exitDx=0;exitDy=0;entryX=1;entryY=1;entryDx=0;entryDy=0;" edge="1" parent="1" source="563A25bPd7Za-6aqqXd2-10" target="563A25bPd7Za-6aqqXd2-8">
          <mxGeometry width="50" height="50" relative="1" as="geometry">
            <mxPoint x="290" y="580" as="sourcePoint" />
            <mxPoint x="322" y="556" as="targetPoint" />
          </mxGeometry>
        </mxCell>
        <mxCell id="563A25bPd7Za-6aqqXd2-14" value="" style="endArrow=none;html=1;rounded=0;exitX=0.642;exitY=0.05;exitDx=0;exitDy=0;entryX=0;entryY=1;entryDx=0;entryDy=0;exitPerimeter=0;" edge="1" parent="1" source="563A25bPd7Za-6aqqXd2-11" target="563A25bPd7Za-6aqqXd2-8">
          <mxGeometry width="50" height="50" relative="1" as="geometry">
            <mxPoint x="300" y="590" as="sourcePoint" />
            <mxPoint x="332" y="566" as="targetPoint" />
          </mxGeometry>
        </mxCell>
        <mxCell id="563A25bPd7Za-6aqqXd2-15" value="" style="endArrow=none;html=1;rounded=0;exitX=1;exitY=0.5;exitDx=0;exitDy=0;entryX=0;entryY=0.5;entryDx=0;entryDy=0;" edge="1" parent="1" source="563A25bPd7Za-6aqqXd2-9" target="563A25bPd7Za-6aqqXd2-8">
          <mxGeometry width="50" height="50" relative="1" as="geometry">
            <mxPoint x="310" y="600" as="sourcePoint" />
            <mxPoint x="342" y="576" as="targetPoint" />
          </mxGeometry>
        </mxCell>
        <mxCell id="563A25bPd7Za-6aqqXd2-16" value="Quantidade_Igrediente" style="ellipse;whiteSpace=wrap;html=1;" vertex="1" parent="1">
          <mxGeometry x="910" y="490" width="150" height="60" as="geometry" />
        </mxCell>
        <mxCell id="563A25bPd7Za-6aqqXd2-17" value="" style="endArrow=none;html=1;rounded=0;exitX=0.1;exitY=0.833;exitDx=0;exitDy=0;entryX=0.5;entryY=0;entryDx=0;entryDy=0;exitPerimeter=0;" edge="1" parent="1" source="563A25bPd7Za-6aqqXd2-16" target="kfA48wIo51u5LH3W96tf-3">
          <mxGeometry width="50" height="50" relative="1" as="geometry">
            <mxPoint x="966" y="614" as="sourcePoint" />
            <mxPoint x="950" y="630" as="targetPoint" />
          </mxGeometry>
        </mxCell>
        <mxCell id="563A25bPd7Za-6aqqXd2-21" value="n" style="text;html=1;align=center;verticalAlign=middle;whiteSpace=wrap;rounded=0;" vertex="1" parent="1">
          <mxGeometry x="400" y="520" width="60" height="30" as="geometry" />
        </mxCell>
        <mxCell id="563A25bPd7Za-6aqqXd2-22" value="m" style="text;html=1;align=center;verticalAlign=middle;whiteSpace=wrap;rounded=0;" vertex="1" parent="1">
          <mxGeometry x="700" y="520" width="60" height="30" as="geometry" />
        </mxCell>
      </root>
    </mxGraphModel>
  </diagram>
</mxfile>
